<svg id="Layer_1" data-name="Layer 1" xmlns="http://www.w3.org/2000/svg" viewBox="0 0 149 130"><defs><style>.cls-1{fill:#fcfcfc;fill-rule:evenodd;}</style></defs><title>camera_icon</title><polygon class="cls-1" points="30.34 11.03 21.94 11.03 21.94 7.74 16.2 7.74 16.2 11.03 7.73 11.03 7.73 14.33 30.34 14.33 30.34 11.03"/><polygon class="cls-1" points="145.22 10.92 133.23 10.92 133.23 6.8 127.49 6.8 127.49 10.92 115.5 10.92 115.5 14.18 145.22 14.18 145.22 10.92"/><path class="cls-1" d="M260.08,243.48a32.47,32.47,0,1,0,32.47,32.46A32.5,32.5,0,0,0,260.08,243.48Zm0,55.56a23.1,23.1,0,1,1,23.1-23.1A23.12,23.12,0,0,1,260.08,299Z" transform="translate(-182.68 -192.76)"/><path class="cls-1" d="M317,242.63l.15-22H198.75v22.1l24.74,0,0,.43.88,16.71a39.14,39.14,0,0,1,72.65,1.93l1.41-19.15ZM226.76,237h-22.4v-11.2h22.4Zm57.42-2.79a3.33,3.33,0,1,1,3.33-3.33A3.33,3.33,0,0,1,284.18,234.19Zm6.36,2.49v-11.2h22.4v11.2Z" transform="translate(-182.68 -192.76)"/><path class="cls-1" d="M327.88,211.3v-3.37h0v-.08H298.18v.08h0v3.15H283.93V195.84c0-1.7-2.37-3.08-5.26-3.08H235.41c-2.9,0-5.26,1.38-5.26,3.08v15.24H215.57L213,208h-22.8l-2.66,3.21-4.88.12v96.8l9.8.55h35.1a44.86,44.86,0,0,0,65.27,0H322l9.67-.41V211.44Zm-90.2-12h38.53V211H237.68Zm22.65,117c-21.76,0-39.4-17.95-39.4-40.08a40.39,40.39,0,0,1,2.67-14.48l-1-18.19-24.79,0V219.75H318.1l-.16,23.79-18.63,0L297.8,264a40.6,40.6,0,0,1,1.92,12.35C299.72,298.44,282.08,316.39,260.33,316.39ZM327,299.5H305.59v-9.57H327Zm.15-14.06H305.74v-7h21.43Z" transform="translate(-182.68 -192.76)"/></svg>