<svg id="Layer_1" data-name="Layer 1" xmlns="http://www.w3.org/2000/svg" viewBox="0 0 537.49 12"><defs><style>.cls-1{fill:none;stroke:#000;stroke-miterlimit:10;}</style></defs><title>line_decoration</title><path d="M316,250.5a5.51,5.51,0,0,1-5.5-5.45A5.51,5.51,0,0,1,316,239.5a5.5,5.5,0,0,1,.1,11Z" transform="translate(-47.5 -239)"/><path d="M316,240a5,5,0,1,1-5,5,5,5,0,0,1,5-5h0m0-1H316a6,6,0,0,0,.05,12h.05a6,6,0,0,0-.05-12Z" transform="translate(-47.5 -239)"/><line class="cls-1" y1="7.73" x2="229" y2="5.83"/><line class="cls-1" x1="308.5" y1="5.67" x2="537.49" y2="3.76"/></svg>