<svg id="Layer_1" data-name="Layer 1" xmlns="http://www.w3.org/2000/svg" viewBox="0 0 480.71 498.57"><title>logo_black</title><g id="_4" data-name=" 4"><path d="M241.36,113.9C166.59,113.9,106,173.13,106,246.19s60.61,132.29,135.38,132.29,135.38-59.27,135.38-132.27h0C376.67,173.15,316.09,114,241.36,113.9Zm6.81,255.39c-2,.09-4,.16-6.09.17h-.72c-43.41.08-83.78-21.74-106.78-57.71-1.07-1.66-2.13-3.42-3.14-5.12a120.67,120.67,0,0,1-2.2-117c.9-1.69,1.86-3.42,2.94-5.23C153.67,148,192.81,124.79,235.81,123c1.88-.08,3.75-.11,5.53-.11h.56c42.86.12,82.7,21.56,105.72,56.89,1.05,1.59,2.09,3.25,3.17,5.07a121,121,0,0,1,16.7,61.25A119.66,119.66,0,0,1,353.81,302c-.92,1.75-1.9,3.51-2.9,5.23C329.71,343.64,291,367,248.17,369.27Z" transform="translate(0 0.03)"/><path d="M264.81,285.86,353.3,184.49l-.42-.7c-1.1-1.85-2.15-3.55-3.21-5.16l-.85-1.29-60.15,68.87L242.75,120.63h-1.39c-1.8,0-3.7,0-5.63.12l-1.58.06,31,85L130.67,182.56l-.41.68c-1.16,1.87-2.08,3.61-3,5.33l-.72,1.38,90.94,15.69-87.9,100.81-.52.61.41.68c1,1.78,2.09,3.53,3.19,5.23l.84,1.29,60.17-69,47.66,126.5h.81c2.08,0,4.16-.08,6.21-.18l1.57-.08-32.26-85.68,134,23.15.8.14.41-.7c1-1.74,2-3.54,3-5.33l.71-1.37ZM282,253,255,284l-40.94-7.31-14-38.3,27-31L268,214.75Z" transform="translate(0 0.03)"/><path d="M35.31,186.16A15.85,15.85,0,0,1,27.09,196a17.18,17.18,0,0,1-13,1.12,16.7,16.7,0,0,1-10.32-7.92,15.32,15.32,0,0,1-1.31-12.59,15.8,15.8,0,0,1,8.21-9.81,17.19,17.19,0,0,1,13.06-1.12A16.65,16.65,0,0,1,34,173.57,15.28,15.28,0,0,1,35.31,186.16Zm-30.83-9A12.89,12.89,0,0,0,5.67,188a15,15,0,0,0,9.06,6.81A15.25,15.25,0,0,0,26.14,194a13.34,13.34,0,0,0,7.11-8.41,12.83,12.83,0,0,0-1.19-10.8,14.88,14.88,0,0,0-9-6.77,15.45,15.45,0,0,0-11.41.81,13.23,13.23,0,0,0-7.17,8.34Z" transform="translate(0 0.03)"/><path d="M47.38,153.81l-29-15.48q1.79-3.93,3.26-6.56a12,12,0,0,1,5.85-5.53,8.47,8.47,0,0,1,7.54.62,9.62,9.62,0,0,1,4.06,4.1,15.94,15.94,0,0,1,1.75,5.32q10-1.44,12.07-1.92a10.46,10.46,0,0,0,6-3.83l1.37.79a11.91,11.91,0,0,1-3,3.59,11.11,11.11,0,0,1-4,1.79q-2.51.63-12.64,1.87c-1.33,2.37-2.7,4.66-4.11,6.85l11.93,6.37Zm-9-15.05c.63-1.14.54-2.79-.28-4.93A9,9,0,0,0,33.76,129a6.49,6.49,0,0,0-5.86-.46A9.82,9.82,0,0,0,23.31,133c-.66,1.17-1.36,2.57-2.12,4.21l13.68,7.31q2-3,3.5-5.73Z" transform="translate(0 0.03)"/><path d="M67.79,120.59,42.28,99.39l.73-.84,33.41-.3c1.19,0,2.34,0,3.44.06l1.72.08c-.67-.47-1.91-1.47-3.74-3L59.48,80.15,61,78.4,86.53,99.6l-.74.84-34,.34-4.46-.08q.86.57,3.74,3l18.25,15.16Z" transform="translate(0 0.03)"/><path d="M101.56,85.64,80.9,60.4,93,50.91l1.27,1.55L84,60.51l7.51,9.18,9.26-7.26L102,64l-9.25,7.27,9.29,11.36,10.66-8.37,1.33,1.64Z" transform="translate(0 0.03)"/><path d="M129.38,66,113.07,37.66l2-1.13,15.31,26.54,13.29-7.34,1.06,1.84Z" transform="translate(0 0.03)"/><path d="M159.18,51.3,147.45,21l2.2-.81,11,28.34,14.21-5.23.76,2Z" transform="translate(0 0.03)"/><path d="M190.21,29.83l-2.4,11.94-2.36.45,7.09-34.66,1.35-.26,20.27,29.46-2.55.49-7-10.16Zm3.62-18.74c-.2,1.57-.4,2.88-.6,3.94l-2.56,12.74,12.83-2.44-7.36-10.8c-1.19-1.68-1.94-2.83-2.31-3.44Z" transform="translate(0 0.03)"/><path d="M275,36.09l-1.32-.21L267.15,9.22c-.38-1.48-.67-2.77-.87-3.89L265.16,9l-8.49,26.21-2.48-.37L265.91,0l1.41.21,7,28a27.44,27.44,0,0,1,.8,3.68,37.54,37.54,0,0,1,2.12-3.19L294.1,4.21l1.36.2L295.24,41l-2.57-.37.4-27.52a27.82,27.82,0,0,1,.22-3.87,2.61,2.61,0,0,0-.31.43c-.16.27-.44.7-.83,1.3l-1.21,1.88Z" transform="translate(0 0.03)"/><path d="M317.9,37l-8.73,8.78L306.93,45l25.44-25.49,1.3.49.61,35.59-2.43-1-.18-12.19Zm13.58-13.88c-1.05,1.22-2,2.22-2.72,3l-9.35,9.35,12.26,4.76-.17-13C331.44,25.22,331.45,23.85,331.48,23.14Z" transform="translate(0 0.03)"/><path d="M382,45.32l-.6.93L349,61l16.77,10.14L364.57,73,344.9,61l.63-1L378,45.24l-15.47-9.36,1.11-1.67Z" transform="translate(0 0.03)"/><path d="M415.41,72.08l-.75.82-34.51,9.15L395,95l-1.42,1.57L376.16,81.38l.77-.86,34.55-9.18L397.75,59.42,399.11,58Z" transform="translate(0 0.03)"/><path d="M413.32,120.06a15.25,15.25,0,0,1-3.11-12.26,16.44,16.44,0,0,1,6.9-10.9,17.14,17.14,0,0,1,12.64-3.34,15.9,15.9,0,0,1,11.1,6.44A15.33,15.33,0,0,1,444,112.26a16.43,16.43,0,0,1-6.91,10.89,17.09,17.09,0,0,1-12.64,3.35A15.91,15.91,0,0,1,413.32,120.06Zm25.86-18.81a13.46,13.46,0,0,0-9.6-5.48,15.29,15.29,0,0,0-11,3.06,14.66,14.66,0,0,0-6.14,9.43,13,13,0,0,0,2.62,10.56,13.4,13.4,0,0,0,9.56,5.47,15.29,15.29,0,0,0,11-3.06,14.82,14.82,0,0,0,6.17-9.42A12.81,12.81,0,0,0,439.18,101.25Z" transform="translate(0 0.03)"/><path d="M432.77,149.09l30-13.88,1,2.09-28.11,13,6.52,13.5-1.95.9Z" transform="translate(0 0.03)"/><path d="M457.42,177.45,445,176.09l-.67-2.26,35.95,4.06.39,1.29-28.13,22.19-.73-2.45,9.7-7.62Zm19.43,2c-1.62-.07-3-.16-4.07-.27l-13.21-1.49L463.23,190l10.32-8c1.61-1.29,2.71-2.13,3.3-2.53Z" transform="translate(0 0.03)"/><path d="M468.54,366l-1.11,2L457,362.45l-24.75.75,1.34-2.42,19.12-.57a24.68,24.68,0,0,0,2.72,0c-.29-.38-.78-1.12-1.45-2.2l-9.89-16,1.28-2.29,12.83,20.83Z" transform="translate(0 0.03)"/><path d="M444.4,402.33l-12.81-10.65-15.11,17.16,12.82,10.65-1.54,1.75L402.4,400.17l1.54-1.75,10.94,9.09L430,390.35l-10.94-9.09,1.54-1.76,25.35,21.08Z" transform="translate(0 0.03)"/><path d="M391.72,451.43l-19.87-25.72a74.43,74.43,0,0,1,6.24-5.12,11.71,11.71,0,0,1,7.16-2.52q3.74,0,6.51,3.61a8.6,8.6,0,0,1,1.31,8.29,15.5,15.5,0,0,1-5.87,8l-.45.33-1-1.28.29-.21a13.1,13.1,0,0,0,4.89-6.57,7.07,7.07,0,0,0-1.06-6.86q-2.31-3-5.26-2.94a10.57,10.57,0,0,0-6.06,2.35q-1.64,1.21-3.72,3l18.76,24.29Z" transform="translate(0 0.03)"/><path d="M344.59,465.25l.84,12.13-2.15,1L341,443.12l1.24-.6,27.32,23.17-2.34,1.13-9.39-8Zm-1.46-19c.22,1.57.37,2.88.46,4l.85,12.95,11.72-5.66L346.22,449c-1.55-1.32-2.55-2.24-3.09-2.73Z" transform="translate(0 0.03)"/><path d="M299.93,492l-8.46-31.23q4.2-1.47,7.19-2.25a12.53,12.53,0,0,1,8.2.3,8.15,8.15,0,0,1,4.77,5.77,9.29,9.29,0,0,1-.27,5.71,16.24,16.24,0,0,1-2.78,4.93q8,6.08,9.8,7.21a10.9,10.9,0,0,0,7.06,1.62l.36,1.51a12.69,12.69,0,0,1-4.75.39,11.34,11.34,0,0,1-4.16-1.63q-2.22-1.38-10.15-7.63c-2.7.7-5.36,1.32-8,1.84l3.49,12.86ZM305,475.21q2-.51,3.51-3.62a8.78,8.78,0,0,0,.66-6.44,6.2,6.2,0,0,0-3.72-4.46,10.41,10.41,0,0,0-6.55-.14c-1.33.35-2.88.83-4.64,1.42l4,14.75Q301.9,476,305,475.21Z" transform="translate(0 0.03)"/><path d="M254.39,467.13a12.31,12.31,0,0,0-9.31,4.7,15.07,15.07,0,0,0,12,24.57,24.68,24.68,0,0,0,9.1-1.8l-.67-13.37,2.35-.11.72,14.42q-3.87,2.59-11.17,2.95a17,17,0,0,1-12.55-4.25,16,16,0,0,1-5.6-11.7,16.65,16.65,0,0,1,3.93-12.11,15.27,15.27,0,0,1,11.43-5.38,36.93,36.93,0,0,1,11.37,1.2l-.52,1.93A37.76,37.76,0,0,0,254.39,467.13Z" transform="translate(0 0.03)"/><path d="M194.06,494.63a16.22,16.22,0,0,1-13.55-18.51c.05-.29.1-.58.16-.86a16.84,16.84,0,0,1,19.62-13.5l.11,0a16.26,16.26,0,0,1,13.5,18.61c0,.26-.09.52-.14.77a16.85,16.85,0,0,1-19.63,13.49l-.1,0Zm6-30.83a14,14,0,0,0-10.93,2.37,14.72,14.72,0,0,0-6,9.52,14.16,14.16,0,0,0,2,10.93,13.44,13.44,0,0,0,9.31,6,13.83,13.83,0,0,0,10.9-2.35,14.66,14.66,0,0,0,6-9.5,14.38,14.38,0,0,0-2-10.95,13.42,13.42,0,0,0-9.28-6Z" transform="translate(0 0.03)"/><path d="M152.67,450.35l-10.39-4.2.8-1.89L166,453.52l-.81,1.89-10.39-4.2-11.91,28.1-2.12-.85Z" transform="translate(0 0.03)"/><path d="M93.76,453.84a15.57,15.57,0,0,1-6.92-10.66,16.11,16.11,0,0,1,3-12.41,16.74,16.74,0,0,1,10.89-7,16.16,16.16,0,0,1,12.59,2.74,15.54,15.54,0,0,1,6.92,10.66,16.11,16.11,0,0,1-3,12.41,16.74,16.74,0,0,1-10.89,7A16.2,16.2,0,0,1,93.76,453.84Zm18.4-25.65A13.69,13.69,0,0,0,101.29,426a15,15,0,0,0-9.43,6.23A14.32,14.32,0,0,0,89.11,443a13.13,13.13,0,0,0,5.9,9.2,13.64,13.64,0,0,0,10.83,2.29,15,15,0,0,0,9.39-6.23,14.45,14.45,0,0,0,2.79-10.8A13.07,13.07,0,0,0,112.16,428.19Z" transform="translate(0 0.03)"/><path d="M55.33,421.41,68,410.6,52.67,393.69,40,404.5l-1.56-1.73,25-21.38L65,383.12l-10.78,9.22,15.31,16.91L80.34,400l1.56,1.73-25,21.37Z" transform="translate(0 0.03)"/><path d="M12.78,363.76,41.67,348A73.26,73.26,0,0,1,46,354.71,11.08,11.08,0,0,1,47.52,362c-.37,2.41-1.89,4.35-4.58,5.82a9.15,9.15,0,0,1-8.57.14,15.68,15.68,0,0,1-7.24-6.77l-.27-.49,1.43-.78c.06.12.12.22.17.31a13.19,13.19,0,0,0,6,5.63,7.53,7.53,0,0,0,7.11-.09q3.36-1.83,3.72-4.69a10,10,0,0,0-1.57-6.1c-.67-1.17-1.51-2.51-2.52-4l-27.27,14.8Z" transform="translate(0 0.03)"/><ellipse cx="14.55" cy="252.97" rx="14.55" ry="14.22"/><ellipse cx="461.67" cy="252.97" rx="14.55" ry="14.22"/></g></svg>