<svg id="Layer_1" data-name="Layer 1" xmlns="http://www.w3.org/2000/svg" viewBox="0 0 480.71 498.52"><defs><style>.cls-1{fill:#f9f9f9;}.cls-2{isolation:isolate;}</style></defs><title>logo_white</title><g id="_4" data-name=" 4"><path class="cls-1" d="M254.69,121.93c-74.77,0-135.38,59.23-135.38,132.29s60.61,132.29,135.38,132.29,135.38-59.27,135.38-132.27h0C390,181.18,329.42,122,254.69,121.93Zm6.81,255.39c-2,.09-4.05.16-6.09.17h-.72c-43.41.08-83.78-21.74-106.78-57.71-1.07-1.66-2.13-3.42-3.14-5.12a120.67,120.67,0,0,1-2.2-117c.9-1.69,1.86-3.42,2.94-5.23C167,156,206.14,132.82,249.14,131.05c1.88-.08,3.75-.11,5.53-.11h.56c42.86.12,82.7,21.56,105.72,56.89,1.05,1.59,2.09,3.25,3.17,5.07a121,121,0,0,1,16.7,61.25A119.71,119.71,0,0,1,367.14,310c-.92,1.75-1.9,3.51-2.9,5.23-21.2,36.44-59.91,59.83-102.74,62.07Z" transform="translate(-13.33 -8.03)"/><path class="cls-1" d="M278.14,293.89l88.49-101.37-.42-.7c-1.1-1.85-2.15-3.55-3.21-5.16l-.85-1.29L302,254.24,256.08,128.66h-1.39c-1.8,0-3.7,0-5.63.12l-1.58.06,31,85L144,190.59l-.41.68c-1.16,1.87-2.08,3.61-3,5.33l-.72,1.38,90.94,15.69-87.9,100.81-.52.61.41.68c1,1.78,2.09,3.53,3.19,5.23l.84,1.29,60.17-69,47.66,126.5h.81c2.08,0,4.16-.08,6.21-.18l1.57-.08-32.26-85.68L365,317l.8.14.41-.7c1-1.74,2-3.54,3-5.33l.71-1.37Zm17.14-32.82-26.93,31-40.94-7.31-14-38.3,27-31,40.94,7.32Z" transform="translate(-13.33 -8.03)"/><g class="cls-2"><path class="cls-1" d="M48.64,194.19A15.84,15.84,0,0,1,40.42,204a17.18,17.18,0,0,1-13,1.12A16.7,16.7,0,0,1,17.1,197.2a15.34,15.34,0,0,1-1.31-12.59A15.79,15.79,0,0,1,24,174.8a17.2,17.2,0,0,1,13.06-1.12,16.68,16.68,0,0,1,10.26,7.92A15.3,15.3,0,0,1,48.64,194.19Zm-30.83-9A12.87,12.87,0,0,0,19,196a15,15,0,0,0,9.06,6.81A15.3,15.3,0,0,0,39.47,202a13.34,13.34,0,0,0,7.11-8.41,12.83,12.83,0,0,0-1.19-10.8,14.87,14.87,0,0,0-9-6.77,15.45,15.45,0,0,0-11.41.81A13.25,13.25,0,0,0,17.81,185.17Z" transform="translate(-13.33 -8.03)"/></g><g class="cls-2"><path class="cls-1" d="M60.71,161.84l-29-15.48q1.79-3.93,3.26-6.56a12,12,0,0,1,5.85-5.53,8.47,8.47,0,0,1,7.54.62,9.57,9.57,0,0,1,4.06,4.1,15.83,15.83,0,0,1,1.75,5.32q10-1.44,12.07-1.92a10.48,10.48,0,0,0,6-3.83l1.37.79a12,12,0,0,1-3,3.59,11.16,11.16,0,0,1-4,1.79q-2.5.63-12.64,1.87-2,3.56-4.11,6.85l11.93,6.37Zm-9-15.05c.63-1.14.54-2.79-.28-4.93A9,9,0,0,0,47.09,137a6.47,6.47,0,0,0-5.86-.46A9.86,9.86,0,0,0,36.64,141c-.66,1.17-1.36,2.57-2.12,4.21l13.68,7.31Q50.18,149.51,51.7,146.79Z" transform="translate(-13.33 -8.03)"/></g><g class="cls-2"><path class="cls-1" d="M81.12,128.62l-25.51-21.2.73-.84,33.41-.3c1.19,0,2.34,0,3.44.06l1.72.08q-1-.7-3.74-3L72.81,88.18l1.54-1.75,25.51,21.2-.74.84-34,.34-4.46-.08c.57.38,1.82,1.38,3.74,3l18.25,15.16Z" transform="translate(-13.33 -8.03)"/></g><g class="cls-2"><path class="cls-1" d="M114.89,93.67,94.23,68.43l12.1-9.49,1.27,1.55L97.34,68.54l7.51,9.18,9.26-7.26L115.35,72l-9.25,7.27,9.29,11.36,10.66-8.37,1.33,1.64Z" transform="translate(-13.33 -8.03)"/></g><g class="cls-2"><path class="cls-1" d="M142.71,74.07,126.4,45.69l2-1.13L143.71,71.1,157,63.76l1.06,1.84Z" transform="translate(-13.33 -8.03)"/></g><g class="cls-2"><path class="cls-1" d="M172.51,59.33,160.78,29l2.2-.81,11,28.34,14.21-5.23.76,2Z" transform="translate(-13.33 -8.03)"/></g><g class="cls-2"><path class="cls-1" d="M203.54,37.86l-2.4,11.94-2.36.45,7.09-34.66,1.35-.26,20.27,29.46-2.55.49-7-10.16Zm3.62-18.74c-.2,1.57-.4,2.88-.6,3.94L204,35.8l12.83-2.44-7.36-10.8C208.28,20.88,207.53,19.73,207.16,19.12Z" transform="translate(-13.33 -8.03)"/></g><g class="cls-2"><path class="cls-1" d="M288.32,44.12,287,43.91l-6.52-26.66c-.38-1.48-.67-2.77-.87-3.89l-1.12,3.7L270,43.27l-2.48-.37L279.24,8l1.41.21,7,28a27.94,27.94,0,0,1,.8,3.68,36.88,36.88,0,0,1,2.12-3.19l16.86-24.46,1.36.2L308.57,49,306,48.63l.4-27.52a27.32,27.32,0,0,1,.22-3.87,2.3,2.3,0,0,0-.31.43c-.16.27-.44.7-.83,1.3l-1.21,1.88Z" transform="translate(-13.33 -8.03)"/></g><g class="cls-2"><path class="cls-1" d="M331.23,45.05l-8.73,8.78L320.26,53,345.7,27.51,347,28l.61,35.59-2.43-1L345,50.4Zm13.58-13.88c-1.05,1.22-1.95,2.22-2.72,3l-9.35,9.35L345,48.28l-.17-13C344.77,33.25,344.78,31.88,344.81,31.17Z" transform="translate(-13.33 -8.03)"/></g><g class="cls-2"><path class="cls-1" d="M395.35,53.35l-.6.93L362.28,69l16.77,10.14L377.9,81,358.23,69.06l.63-1,32.5-14.79-15.47-9.36L377,42.24Z" transform="translate(-13.33 -8.03)"/></g><g class="cls-2"><path class="cls-1" d="M428.74,80.11l-.75.82-34.51,9.15L408.36,103l-1.42,1.57L389.49,89.41l.77-.86,34.55-9.18L411.08,67.45,412.44,66Z" transform="translate(-13.33 -8.03)"/></g><g class="cls-2"><path class="cls-1" d="M426.65,128.09a15.26,15.26,0,0,1-3.11-12.26,16.46,16.46,0,0,1,6.9-10.9,17.16,17.16,0,0,1,12.64-3.34,15.91,15.91,0,0,1,11.1,6.44,15.33,15.33,0,0,1,3.11,12.26,16.43,16.43,0,0,1-6.91,10.89,17.11,17.11,0,0,1-12.64,3.35A15.93,15.93,0,0,1,426.65,128.09Zm25.86-18.81a13.46,13.46,0,0,0-9.6-5.48,15.3,15.3,0,0,0-11,3.06,14.67,14.67,0,0,0-6.14,9.43,12.94,12.94,0,0,0,2.62,10.56,13.37,13.37,0,0,0,9.56,5.47,15.27,15.27,0,0,0,11-3.06,14.83,14.83,0,0,0,6.17-9.42A12.8,12.8,0,0,0,452.51,109.28Z" transform="translate(-13.33 -8.03)"/></g><g class="cls-2"><path class="cls-1" d="M446.1,157.12l30-13.88,1,2.09-28.11,13,6.52,13.5-1.95.9Z" transform="translate(-13.33 -8.03)"/></g><g class="cls-2"><path class="cls-1" d="M470.75,185.48l-12.38-1.36-.67-2.26,35.95,4.06.39,1.29L465.91,209.4l-.73-2.45,9.7-7.62Zm19.43,2c-1.62-.07-3-.16-4.07-.27l-13.21-1.49L476.56,198,486.88,190C488.49,188.71,489.59,187.87,490.18,187.47Z" transform="translate(-13.33 -8.03)"/></g><g class="cls-2"><path class="cls-1" d="M481.87,374.05l-1.11,2-10.43-5.57-24.75.75,1.34-2.42,19.12-.57a24.41,24.41,0,0,0,2.72,0c-.29-.38-.78-1.12-1.45-2.2L457.42,350l1.28-2.29,12.83,20.83Z" transform="translate(-13.33 -8.03)"/></g><g class="cls-2"><path class="cls-1" d="M457.73,410.36l-12.81-10.65-15.11,17.16,12.82,10.65-1.54,1.75L415.73,408.2l1.54-1.75,10.94,9.09,15.11-17.16-10.94-9.09,1.54-1.76,25.35,21.08Z" transform="translate(-13.33 -8.03)"/></g><g class="cls-2"><path class="cls-1" d="M405.05,459.46l-19.87-25.72a74.28,74.28,0,0,1,6.24-5.12,11.73,11.73,0,0,1,7.16-2.52q3.74,0,6.51,3.61A8.6,8.6,0,0,1,406.4,438a15.56,15.56,0,0,1-5.87,8l-.45.33-1-1.28.29-.21a13.13,13.13,0,0,0,4.89-6.57,7.06,7.06,0,0,0-1.06-6.86q-2.31-3-5.26-2.94a10.56,10.56,0,0,0-6.06,2.35q-1.63,1.22-3.72,3l18.76,24.29Z" transform="translate(-13.33 -8.03)"/></g><g class="cls-2"><path class="cls-1" d="M357.92,473.28l.84,12.13-2.15,1-2.33-35.26,1.24-.6,27.32,23.17-2.34,1.13-9.39-8Zm-1.46-19c.22,1.57.37,2.88.46,4l.85,12.95,11.72-5.66L359.55,457C358,455.68,357,454.76,356.46,454.27Z" transform="translate(-13.33 -8.03)"/></g><g class="cls-2"><path class="cls-1" d="M313.26,500.05l-8.46-31.23q4.2-1.47,7.19-2.25a12.56,12.56,0,0,1,8.2.3,8.13,8.13,0,0,1,4.77,5.77,9.31,9.31,0,0,1-.27,5.71,16.05,16.05,0,0,1-2.78,4.93q8,6.08,9.8,7.21a10.9,10.9,0,0,0,7.06,1.62l.36,1.51a12.8,12.8,0,0,1-4.75.39,11.34,11.34,0,0,1-4.16-1.63Q328,491,320.07,484.75c-2.7.7-5.36,1.32-8,1.84l3.49,12.86Zm5.06-16.81q1.95-.51,3.51-3.62a8.79,8.79,0,0,0,.66-6.44,6.19,6.19,0,0,0-3.72-4.46,10.35,10.35,0,0,0-6.55-.14q-2,.53-4.64,1.42l4,14.75Q315.23,484,318.32,483.24Z" transform="translate(-13.33 -8.03)"/></g><g class="cls-2"><path class="cls-1" d="M267.72,475.16a12.34,12.34,0,0,0-9.31,4.7,14.87,14.87,0,0,0-3.34,10.57,14.75,14.75,0,0,0,15.32,14,24.71,24.71,0,0,0,9.1-1.8l-.67-13.37,2.35-.11.72,14.42q-3.87,2.6-11.17,2.95a17,17,0,0,1-12.55-4.25,16,16,0,0,1-5.6-11.7,16.65,16.65,0,0,1,3.93-12.11,15.29,15.29,0,0,1,11.43-5.38,37,37,0,0,1,11.37,1.2l-.52,1.93A37.84,37.84,0,0,0,267.72,475.16Z" transform="translate(-13.33 -8.03)"/></g><g class="cls-2"><path class="cls-1" d="M207.39,502.66A16.22,16.22,0,0,1,194,483.29a16.84,16.84,0,0,1,19.73-13.48,16.26,16.26,0,0,1,13.36,19.38,16.84,16.84,0,0,1-19.73,13.47Zm6-30.83a13.91,13.91,0,0,0-10.93,2.37,14.69,14.69,0,0,0-6,9.52,14.14,14.14,0,0,0,2,10.93,13.44,13.44,0,0,0,9.31,6,13.8,13.8,0,0,0,10.9-2.35,14.63,14.63,0,0,0,6-9.5,14.36,14.36,0,0,0-2-10.95A13.42,13.42,0,0,0,213.39,471.83Z" transform="translate(-13.33 -8.03)"/></g><g class="cls-2"><path class="cls-1" d="M166,458.38l-10.39-4.2.8-1.89,22.91,9.26-.81,1.89-10.39-4.2-11.91,28.1-2.12-.85Z" transform="translate(-13.33 -8.03)"/></g><g class="cls-2"><path class="cls-1" d="M107.09,461.87a15.58,15.58,0,0,1-6.92-10.66,16.11,16.11,0,0,1,3-12.41,16.71,16.71,0,0,1,10.89-7,16.19,16.19,0,0,1,12.59,2.74,15.56,15.56,0,0,1,6.92,10.66,16.12,16.12,0,0,1-3,12.41,16.71,16.71,0,0,1-10.89,7A16.2,16.2,0,0,1,107.09,461.87Zm18.4-25.65A13.68,13.68,0,0,0,114.62,434a15,15,0,0,0-9.43,6.23A14.33,14.33,0,0,0,102.44,451a13.14,13.14,0,0,0,5.9,9.2,13.65,13.65,0,0,0,10.83,2.29,15,15,0,0,0,9.39-6.23,14.47,14.47,0,0,0,2.79-10.8A13.06,13.06,0,0,0,125.49,436.22Z" transform="translate(-13.33 -8.03)"/></g><g class="cls-2"><path class="cls-1" d="M68.66,429.44l12.63-10.81L66,401.72,53.35,412.53l-1.56-1.73,25-21.38,1.56,1.73-10.78,9.22,15.31,16.91,10.79-9.22,1.56,1.73-25,21.37Z" transform="translate(-13.33 -8.03)"/></g><g class="cls-2"><path class="cls-1" d="M26.11,371.79,55,356a73.84,73.84,0,0,1,4.31,6.74,11.1,11.1,0,0,1,1.54,7.28c-.37,2.41-1.89,4.35-4.58,5.82a9.16,9.16,0,0,1-8.57.14,15.64,15.64,0,0,1-7.24-6.77l-.27-.49,1.43-.78c.06.12.12.22.17.31a13.17,13.17,0,0,0,6,5.63,7.52,7.52,0,0,0,7.11-.09q3.36-1.83,3.72-4.69A10,10,0,0,0,57.05,363q-1-1.76-2.52-4L27.26,373.8Z" transform="translate(-13.33 -8.03)"/></g><ellipse class="cls-1" cx="14.55" cy="252.94" rx="14.55" ry="14.22"/><ellipse class="cls-1" cx="461.67" cy="252.94" rx="14.55" ry="14.22"/></g></svg>